<svg xmlns="http://www.w3.org/2000/svg" width="28" height="28" viewBox="0 0 28 28">
  <path fill="#FFF" fill-rule="evenodd" d="M28,1.1666667 L28,26.8333333 C28,27.297115 27.3076058,27.9895092 26.8333333,28 L19.8333333,28 L19.8333333,17.5 L23.3333333,17.5 L23.3333333,12.8333333 L19.8333333,12.8333333 L19.8333333,10.5 C19.3240914,9.001124 19.6597977,8.1723492 21,8.1666667 L23.3333333,8.1666667 L23.3333333,4.6666667 C23.2686399,4.3431997 21.9467966,4.2278007 19.8333333,4.6666667 C17.1629824,4.2278007 14.9599101,6.2000749 15.1666667,9.3333333 L15.1666667,12.8333333 L11.6666667,12.8333333 L11.6666667,17.5 L15.1666667,17.5 L15.1666667,28 L1.1666667,28 C0.6923942,28 0,27.3076058 0,26.8333333 L0,1.1666667 C0,0.6923942 0.6923942,0 1.1666667,0 L26.8333333,0 C27.3076058,0 28,0.6819033 28,1.1666667 Z"/>
</svg>
