<svg xmlns="http://www.w3.org/2000/svg" width="40" height="25" viewBox="0 0 40 25">
  <path fill="#FFF" fill-rule="evenodd" d="M57.8279883,33.7142857 L69.9412745,33.7142857 C70.0512287,34.3392857 70.1428571,34.9642857 70.1428571,35.7857143 C70.1428571,42.9285714 65.2315702,48 57.8279883,48 C50.7359434,48 45,42.4107143 45,35.5 C45,28.5892857 50.7359434,23 57.8279883,23 C61.2915452,23 64.1870054,24.2321429 66.4227405,26.2678571 L62.940858,29.5357143 C61.9879217,28.6428571 60.3202832,27.6071429 57.8279883,27.6071429 C53.4481466,27.6071429 49.8746356,31.1428571 49.8746356,35.5 C49.8746356,39.8571429 53.4481466,43.3928571 57.8279883,43.3928571 C62.9042066,43.3928571 64.8100791,39.8392857 65.1032903,38 L57.8279883,38 L57.8279883,33.7142857 Z M85,33.2272727 L85,36.6363636 L81.1904762,36.6363636 L81.1904762,40.0454545 L77.3809524,40.0454545 L77.3809524,36.6363636 L73.5714286,36.6363636 L73.5714286,33.2272727 L77.3809524,33.2272727 L77.3809524,29.8181818 L81.1904762,29.8181818 L81.1904762,33.2272727 L85,33.2272727 Z" transform="translate(-45 -23)"/>
</svg>
