<svg xmlns="http://www.w3.org/2000/svg" width="30" height="30" viewBox="0 0 30 30">
  <path fill="#FFFFFE" fill-rule="evenodd" d="M64.9999385,20 C56.7157407,20 50,26.7157407 50,34.9999385 C50,41.3546734 53.9536037,46.7823022 59.5334549,48.9678874 C59.4023813,47.7810931 59.2839724,45.9606943 59.5855893,44.6650819 C59.858188,43.4943951 61.3445089,37.2091317 61.3445089,37.2091317 C61.3445089,37.2091317 60.8958338,36.3105519 60.8958338,34.9821096 C60.8958338,32.8963666 62.1047605,31.3392217 63.610017,31.3392217 C64.8897678,31.3392217 65.5078796,32.3000184 65.5078796,33.4521385 C65.5078796,34.7391438 64.6884849,36.6633195 64.2655081,38.4464619 C63.9122487,39.9394225 65.0143247,41.1569564 66.4868742,41.1569564 C69.1528578,41.1569564 71.2020821,38.3458819 71.2020821,34.2881325 C71.2020821,30.6966412 68.6215546,28.1855852 64.936615,28.1855852 C60.6686067,28.1855852 58.1634527,31.3868066 58.1634527,34.6951247 C58.1634527,35.9843433 58.6600816,37.3667644 59.2797918,38.118286 C59.4022583,38.2668197 59.4203332,38.3969096 59.3838146,38.5485173 C59.2699551,39.022276 59.0169068,40.0411091 58.9672316,40.2496465 C58.9016948,40.5242126 58.7497182,40.5824948 58.4655614,40.4501916 C56.5920446,39.5781708 55.420866,36.8391499 55.420866,34.6391786 C55.420866,29.9074943 58.8587823,25.5620223 65.3319261,25.5620223 C70.5352788,25.5620223 74.579134,29.2699551 74.579134,34.2253007 C74.579134,39.3948398 71.3195073,43.5552595 66.7954997,43.5552595 C65.2754882,43.5552595 63.8465889,42.7656208 63.3574605,41.8328586 C63.3574605,41.8328586 62.6053241,44.6968051 62.4229768,45.3986516 C62.0842265,46.7015185 61.1701539,48.3346517 60.5586819,49.3309835 C61.9621288,49.7655184 63.453614,49.999877 64.9999385,49.999877 C73.2842593,49.999877 80,43.2841363 80,34.9999385 C80,26.7157407 73.2842593,20 64.9999385,20" transform="translate(-50 -20)"/>
</svg>
