<svg xmlns="http://www.w3.org/2000/svg" width="40" height="40" viewBox="0 0 40 40">
  <path fill="#2F2E35" fill-rule="evenodd" d="M20,40 C8.954305,40 0,31.045695 0,20 C0,8.954305 8.954305,0 20,0 C31.045695,0 40,8.954305 40,20 C40,31.045695 31.045695,40 20,40 Z M16.3245714,29.9817143 C16.3245714,29.9817143 17.2297143,29.0354286 18.8342857,29.0354286 C21.4468571,29.0354286 22.496,30.64 25.0262857,30.64 C27.7211429,30.64 28.8114286,28.336 28.8114286,28.336 L27.5977143,25.7234286 C27.5977143,25.7234286 26.7954286,26.8342857 25.0468571,26.8342857 C24.0388571,26.8342857 22.8045714,26.4434286 22.4137143,26.4434286 L22.4137143,26.3611429 C25.9314286,25.2914286 28.3177143,21.9794286 28.3177143,17.9268571 C28.3177143,12.9691429 24.5942857,9.14285714 19.8834286,9.14285714 C15.2137143,9.14285714 11.4285714,12.9691429 11.4285714,17.9268571 C11.4285714,22.288 14.0822857,25.7851429 18.1142857,26.5668571 L18.1142857,26.6491429 C16.88,26.6491429 15.3988571,28.5828571 15.3988571,28.5828571 L16.3245714,29.9817143 Z M15.6045714,17.9268571 C15.6045714,15.3965714 16.9005714,13.0308571 19.8834286,13.0308571 C22.8868571,13.0308571 24.1417143,15.3965714 24.1417143,17.9268571 C24.1417143,20.4571429 22.9691429,22.8228571 19.8834286,22.8228571 C16.7154286,22.8228571 15.6045714,20.4571429 15.6045714,17.9268571 Z"/>
</svg>
