<svg xmlns="http://www.w3.org/2000/svg" width="33" height="26" viewBox="0 0 33 26">
  <path fill="#FFF" fill-rule="evenodd" d="M33,3.0983489 C31.7870478,3.620962 30.4778296,3.9755922 29.1108518,4.1249103 C30.5163361,3.3036612 31.5752625,2.034458 32.0950992,0.4852836 C30.785881,1.2318737 29.3418903,1.7918162 27.8016336,2.0717875 C26.5694282,0.8025844 24.798133,0 22.8535589,0 C19.1184364,0 16.0764294,2.9490309 16.0764294,6.5699928 C16.0764294,7.0926059 16.134189,7.5778894 16.2497083,8.063173 C10.6277713,7.7832017 5.621937,5.1701364 2.2911319,1.1945441 C1.7135356,2.1651113 1.3669778,3.2849964 1.3669778,4.4982053 C1.3669778,6.7753051 2.5606768,8.7910983 4.3897316,9.9669777 C3.2730455,9.9296482 2.2333722,9.6310122 1.3284714,9.1457286 L1.3284714,9.2203877 C1.3284714,12.3933955 3.6581097,15.0624551 6.7578763,15.6597272 C6.18028,15.8090452 5.5834306,15.8837042 4.9673279,15.8837042 C4.5245041,15.8837042 4.1009335,15.8463747 3.6966161,15.7717157 C4.5630105,18.384781 7.0659277,20.2885858 10.0309218,20.3259153 C7.7205368,22.080402 4.794049,23.1442929 1.6172695,23.1442929 C1.0781797,23.1442929 0.5390898,23.1069634 0,23.0509691 C3.0035006,24.9174444 6.5653442,26 10.3774796,26 C22.8343057,26 29.6499417,15.9956927 29.6499417,7.3165829 C29.6499417,7.0366116 29.6499417,6.7566403 29.6306884,6.4580043 C30.9399067,5.5807609 32.0950992,4.4235463 33,3.0983489 Z"/>
</svg>
